<?xml version="1.0" encoding="utf-8"?>
<!-- Generator: Adobe Illustrator 18.0.0, SVG Export Plug-In . SVG Version: 6.00 Build 0)  -->
<!DOCTYPE svg PUBLIC "-//W3C//DTD SVG 1.1//EN" "http://www.w3.org/Graphics/SVG/1.1/DTD/svg11.dtd">
<svg version="1.1" id="Layer_1" xmlns="http://www.w3.org/2000/svg" xmlns:xlink="http://www.w3.org/1999/xlink" x="0px" y="0px"
	 width="48px" height="48px" viewBox="0 0 48 48" enable-background="new 0 0 48 48" xml:space="preserve">
<circle fill="#FFFFFF" stroke="#F14F16" stroke-miterlimit="10" stroke-dasharray="12" cx="24" cy="24" r="23">
    
    <animateTransform attributeName="transform"
        attributeType="XML"
        type="rotate"
        from="0 24 24"
        to="360 24 24"
        dur="10s"
        repeatCount="indefinite"  />
</circle>
<circle fill="#F15A24" cx="24" cy="24" r="20"/>
<path fill="#FFFFFF" d="M28,30L28,30c-0.6,0-1-0.4-1-1V19c0-0.5,0.4-1,1-1h0c0.5,0,1,0.4,1,1v10C29,29.6,28.6,30,28,30z">
    <animateTransform id="beans"
            attributeName="transform"
            attributeType="XML"
            type="translate"
            begin=".1"
            dur="1s"
            values="0,5;0,-5;0,5"
            repeatCount="indefinite" />
    
</path>
<path fill="#FFFFFF" d="M19,30L19,30c-0.6,0-1-0.4-1-1V19c0-0.5,0.4-1,1-1h0c0.5,0,1,0.4,1,1v10C20,29.6,19.6,30,19,30z">
    <animateTransform id="beans"
            attributeName="transform"
            attributeType="XML"
            type="translate"
            begin=".2"
            dur="1s"
            values="0,5;0,-5;0,5"
            repeatCount="indefinite" />
    
</path>
<path fill="#FFFFFF" d="M10,30L10,30c-0.6,0-1-0.4-1-1V19c0-0.5,0.4-1,1-1h0c0.5,0,1,0.4,1,1v10C11,29.6,10.6,30,10,30z">
    <animateTransform id="beans"
            attributeName="transform"
            attributeType="XML"
            type="translate"
            begin=".3"
            dur="1s"
            values="0,5;0,-5;0,5"
            repeatCount="indefinite" />
    
</path>
<path fill="#FFFFFF" d="M37,30L37,30c-0.5,0-1-0.4-1-1V19c0-0.5,0.5-1,1-1l0,0c0.5,0,1,0.4,1,1v10C38,29.6,37.5,30,37,30z">
    <animateTransform id="beans"
            attributeName="transform"
            attributeType="XML"
            type="translate"
            begin=".4"
            dur="1s"
            values="0,5;0,-5;0,5"
            repeatCount="indefinite" />
    
</path>
</svg>
